<svg width="185" height="185" viewBox="0 0 185 185" fill="none" xmlns="http://www.w3.org/2000/svg">
<g id="icon">
<path id="Vector" d="M101.885 211.09C83.6096 211.09 65.3419 211.09 47.0667 211.09C46.4448 211.09 45.7554 211.248 45.2085 211.045C44.2868 210.701 43.043 210.326 42.6833 209.592C42.3237 208.857 42.571 207.441 43.103 206.729C45.186 203.934 47.4788 201.297 49.7042 198.615C52.0495 195.782 54.4547 193.002 56.74 190.133C58.1937 188.319 59.7822 187.248 62.2923 187.42C65.4543 187.645 68.6538 187.443 71.8308 187.488C73.187 187.51 73.734 186.971 73.7265 185.607C73.6965 178.249 73.6815 170.891 73.7265 163.533C73.7415 161.615 72.5426 161.689 71.2313 161.689C54.5821 161.697 37.9254 161.712 21.2761 161.682C18.2939 161.682 15.2518 161.787 12.3371 161.292C5.04647 160.064 0.0112394 153.904 0.0112394 146.531C-0.00374645 112.738 -0.00374645 78.9453 0.0112394 45.1448C0.0112394 36.3931 6.83728 29.597 15.5365 29.5895C22.8946 29.5895 30.2526 29.5895 37.6106 29.5895C39.9409 29.5895 40.0384 29.4921 40.0458 27.1543C40.0533 19.6689 40.0458 12.191 40.0608 4.70555C40.0608 3.84386 40.1358 2.95221 40.3306 2.12049C40.6378 0.839206 41.492 0.082422 42.8707 0.0524504C43.4326 0.0374645 43.9946 0.0374645 44.5566 0.0374645C72.8723 0.0374645 101.18 0.0599433 129.496 0C131.737 0 133.378 0.651883 134.936 2.26286C141.38 8.94653 147.906 15.5628 154.44 22.1565C156.546 24.277 158.704 26.3601 160.989 28.2782C161.708 28.8852 162.892 29.1699 163.874 29.1774C171.981 29.2448 180.088 29.2074 188.196 29.2223C196.82 29.2373 203.594 36.0259 203.601 44.6727C203.609 78.5332 203.609 112.386 203.601 146.247C203.601 154.684 196.977 161.307 188.495 161.322C169.913 161.345 151.323 161.322 132.741 161.33C130.842 161.33 129.891 162.251 129.886 164.095C129.886 171.018 129.923 177.934 129.856 184.858C129.841 186.551 130.395 187.195 132.119 187.15C135.61 187.053 139.102 187.15 142.594 187.113C144.01 187.098 145.029 187.585 145.966 188.716C150.724 194.478 155.571 200.173 160.382 205.89C161.289 206.969 162.128 208.116 161.386 209.599C160.697 210.978 159.385 211.105 158.022 211.105C139.312 211.098 120.602 211.105 101.892 211.105L101.885 211.09ZM45.6805 67.7284C45.6805 87.6221 45.6805 107.508 45.6805 127.402C45.6805 129.747 45.8004 129.882 48.0782 129.882C83.8719 129.882 119.673 129.882 155.467 129.882C157.789 129.882 157.917 129.755 157.917 127.454C157.917 97.5277 157.917 67.601 157.917 37.6669C157.917 35.3665 157.797 35.2541 155.459 35.2466C148.101 35.2391 140.743 35.2466 133.385 35.2466C129.429 35.2466 128.372 34.2201 128.365 30.2938C128.35 22.9957 128.365 15.7051 128.365 8.40704C128.365 5.73207 128.32 5.69461 125.637 5.69461C99.8842 5.69461 74.1236 5.69461 48.3705 5.69461C45.7105 5.69461 45.6805 5.73207 45.6805 8.44451C45.6805 28.2108 45.6805 47.9771 45.6805 67.7434V67.7284ZM101.593 135.127C70.6693 135.127 39.7461 135.127 8.8229 135.127C8.20099 135.127 7.57158 135.157 6.94967 135.127C5.7583 135.082 5.27126 135.659 5.27875 136.828C5.30873 139.758 5.16636 142.695 5.3312 145.617C5.67588 151.784 9.75202 155.718 15.9262 156.017C16.608 156.047 17.2974 156.032 17.9867 156.032C73.8464 156.032 129.713 156.032 185.573 156.032C186.262 156.032 186.944 156.047 187.634 156.017C193.68 155.733 197.884 151.409 197.944 145.392C197.966 142.965 197.944 140.53 197.944 138.102C197.944 136.119 196.937 135.127 194.924 135.127C163.814 135.127 132.703 135.127 101.593 135.127ZM163.551 82.3695C163.551 97.3928 163.551 112.416 163.551 127.439C163.551 129.762 163.664 129.875 165.994 129.875C175.967 129.882 185.948 129.852 195.921 129.905C197.652 129.912 198.348 129.425 198.348 127.582C198.304 100.218 198.334 72.8461 198.304 45.482C198.304 39.1879 193.935 34.8795 187.686 34.8645C180.515 34.842 173.345 34.857 166.174 34.8645C163.604 34.8645 163.551 34.9244 163.551 37.487C163.551 52.4504 163.551 67.4062 163.551 82.3695ZM40.0533 82.3695C40.0533 67.3463 40.0458 52.3305 40.0683 37.3072C40.0683 35.8086 39.9035 34.8195 37.9928 34.8345C30.3875 34.9095 22.7822 34.8645 15.1769 34.8795C14.5625 34.8795 13.9331 34.9694 13.3261 35.1043C8.32088 36.2132 5.29374 40.4542 5.29374 46.456C5.27875 73.3781 5.29374 100.308 5.29374 127.23C5.29374 129.822 5.34619 129.875 7.88628 129.875C17.732 129.875 27.5851 129.875 37.4308 129.875C39.9784 129.875 40.0533 129.8 40.0533 127.245C40.0533 112.289 40.0533 97.3254 40.0533 82.3695ZM152.762 205.703C152.454 205.103 152.35 204.744 152.125 204.474C149.023 200.817 145.966 197.123 142.751 193.572C142.137 192.897 140.93 192.47 139.979 192.44C136.18 192.313 132.373 192.395 128.575 192.388C125.255 192.38 124.611 191.744 124.603 188.477C124.596 180.249 124.603 172.022 124.603 163.795C124.603 161.442 124.491 161.322 122.213 161.322C108.876 161.322 95.5308 161.322 82.1935 161.322C79.8557 161.322 79.7583 161.42 79.7508 163.743C79.7433 172.097 79.7508 180.444 79.7433 188.799C79.7433 191.616 78.9865 192.365 76.1991 192.38C72.1455 192.403 68.0918 192.32 64.0456 192.44C63.094 192.47 61.8802 192.882 61.2733 193.549C58.1337 197.004 55.1441 200.585 52.1169 204.144C51.7872 204.534 51.5849 205.036 51.1953 205.695H152.769L152.762 205.703ZM153.473 29.567C146.962 23.0557 140.526 16.6193 134.104 10.1978C134.209 10.063 134.074 10.1604 134.074 10.2503C134.044 16.2371 133.999 22.2165 134.074 28.2033C134.074 28.6604 134.951 29.4996 135.423 29.5071C141.462 29.597 147.502 29.567 153.473 29.567Z" fill="#6DBEFF"/>
<path id="Vector_2" d="M134.636 117.159C118.744 117.159 102.851 117.204 86.9514 117.144C77.855 117.114 68.7587 116.934 59.6623 116.762C58.8905 116.747 57.5118 116.35 57.4668 115.99C57.2795 114.559 57.4668 113.06 57.6167 111.599C57.6317 111.457 58.2536 111.277 58.5983 111.277C68.444 111.352 78.2896 111.449 88.1428 111.539C103.099 111.667 118.062 111.772 133.018 111.929C137.191 111.974 141.357 112.236 145.531 112.244C147.734 112.244 147.449 113.645 147.487 115.024C147.524 116.447 147.487 117.624 145.494 117.579C141.882 117.489 138.263 117.556 134.644 117.556C134.644 117.421 134.644 117.294 134.644 117.159H134.636Z" fill="#6DBEFF"/>
<path id="Vector_3" d="M102.544 50.9745C88.3901 50.9745 74.2285 50.9895 60.0744 50.9445C59.3026 50.9445 57.9314 50.5849 57.864 50.2102C57.6242 48.9065 57.804 47.5203 57.9239 46.179C57.9389 45.9992 58.5233 45.7819 58.868 45.737C59.4824 45.6545 60.1118 45.6845 60.7337 45.6845C88.7347 45.6845 116.736 45.6845 144.737 45.6845C147.674 45.6845 148.783 47.2505 147.726 50.0454C147.577 50.4425 146.962 50.7947 146.498 50.9221C145.913 51.0794 145.261 50.982 144.639 50.982C130.605 50.982 116.578 50.982 102.544 50.982V50.9745Z" fill="#6DBEFF"/>
<path id="Vector_4" d="M102.642 100.735C88.5474 100.735 74.4533 100.75 60.3591 100.705C59.5049 100.705 58.0138 100.442 57.9164 100.045C57.6092 98.7715 57.7741 97.3628 57.8865 96.0216C57.9014 95.8043 58.5683 95.557 58.9579 95.4896C59.5049 95.3922 60.0744 95.4371 60.6364 95.4371C88.6973 95.4371 116.766 95.4371 144.827 95.4371C147.622 95.4371 148.88 97.2954 147.689 99.8729C147.472 100.345 146.498 100.675 145.861 100.697C143.118 100.787 140.376 100.735 137.633 100.742C125.975 100.742 114.308 100.742 102.649 100.742L102.642 100.735Z" fill="#6DBEFF"/>
<path id="Vector_5" d="M110.314 67.7808C102.964 67.7808 95.6057 67.8258 88.2552 67.7658C82.7179 67.7209 77.1807 67.5036 71.6359 67.4586C70.0624 67.4436 69.4854 66.8068 69.6053 65.3232C69.6428 64.8286 69.6278 64.3266 69.6128 63.8321C69.5754 62.6557 70.1373 62.1312 71.3137 62.1537C73.3668 62.1836 75.4273 62.1537 77.4804 62.1537C87.0114 62.1537 96.5498 62.1162 106.081 62.1761C115.424 62.2361 124.761 62.4459 134.104 62.4833C136.15 62.4833 136.262 63.5473 136.255 65.0909C136.247 66.6569 136.232 67.8633 134.052 67.8408C126.139 67.7509 118.227 67.8033 110.307 67.8033V67.7808H110.314Z" fill="#6DBEFF"/>
<path id="Vector_6" d="M108.081 84.2428C100.169 84.2428 92.2564 84.2803 84.3439 84.2278C79.9306 84.1979 75.5098 83.9806 71.0964 83.9131C69.7103 83.8906 69.2682 83.2987 69.2307 81.9874C69.1408 78.728 69.2007 78.6156 72.4452 78.6231C82.2309 78.6231 92.0092 78.5857 101.795 78.6456C112.442 78.713 123.09 78.9154 133.737 78.9528C135.978 78.9528 135.85 80.2341 135.888 81.7477C135.933 83.3362 135.685 84.3252 133.692 84.3102C125.158 84.2278 116.623 84.2728 108.081 84.2728V84.2503V84.2428Z" fill="#6DBEFF"/>
<path id="Vector_7" d="M89.6339 34.8869C79.7807 34.8869 69.9276 34.9019 60.0744 34.857C59.3026 34.857 57.9314 34.4973 57.864 34.1227C57.6242 32.8189 57.7141 31.4102 57.9764 30.1065C58.0363 29.8142 59.2876 29.6194 59.992 29.6194C66.2261 29.582 72.4602 29.597 78.7018 29.597C92.2339 29.597 105.766 29.582 119.298 29.6269C120.153 29.6269 121.644 29.8892 121.741 30.2938C122.048 31.5676 121.981 32.9987 121.711 34.3025C121.644 34.6322 120.317 34.872 119.568 34.872C109.588 34.9094 99.6145 34.8944 89.6339 34.8944V34.8869Z" fill="#6DBEFF"/>
<path id="Vector_8" d="M101.885 151.597C98.4156 151.619 95.7856 148.974 95.7856 145.445C95.7856 142.043 98.4006 139.331 101.735 139.271C105.009 139.211 108.111 142.328 108.066 145.632C108.021 148.959 105.317 151.574 101.885 151.597Z" fill="#6DBEFF"/>
</g>
</svg>
