<svg width="399" height="169" viewBox="0 0 399 169" fill="none" xmlns="http://www.w3.org/2000/svg">
<path d="M199.463 413.257C163.685 413.257 127.922 413.257 92.1438 413.257C90.9263 413.257 89.5768 413.565 88.5059 413.169C86.7016 412.495 84.2665 411.761 83.5624 410.324C82.8583 408.886 83.3424 406.114 84.3839 404.72C88.4619 399.248 92.9506 394.085 97.3074 388.833C101.899 383.288 106.608 377.846 111.082 372.228C113.927 368.678 117.037 366.58 121.951 366.918C128.142 367.358 134.405 366.962 140.625 367.05C143.28 367.094 144.351 366.038 144.336 363.368C144.278 348.963 144.248 334.558 144.336 320.153C144.366 316.397 142.019 316.544 139.452 316.544C106.857 316.559 74.2476 316.588 41.6529 316.529C35.8146 316.529 29.8589 316.735 24.1526 315.767C9.87963 313.361 0.0220036 301.303 0.0220036 286.869C-0.00733454 220.711 -0.00733454 154.553 0.0220036 88.3812C0.0220036 71.2477 13.3855 57.9429 30.4163 57.9282C44.8214 57.9282 59.2264 57.9282 73.6315 57.9282C78.1935 57.9282 78.3842 57.7375 78.3989 53.1608C78.4136 38.5063 78.3989 23.8666 78.4282 9.21218C78.4282 7.52524 78.5749 5.77962 78.9563 4.15135C79.5578 1.64294 81.23 0.16136 83.9292 0.102684C85.0293 0.0733454 86.1295 0.0733454 87.2297 0.0733454C142.664 0.0733454 198.084 0.117353 253.518 0C257.904 0 261.117 1.27621 264.168 4.43006C276.784 17.5149 289.56 30.4677 302.352 43.3765C306.474 47.5278 310.698 51.6058 315.173 55.3611C316.581 56.5493 318.899 57.1067 320.82 57.1214C336.692 57.2534 352.564 57.1801 368.436 57.2094C385.32 57.2388 398.581 70.529 398.596 87.4571C398.61 153.747 398.61 220.022 398.596 286.311C398.596 302.829 385.628 315.796 369.023 315.825C332.643 315.869 296.249 315.825 259.87 315.84C256.154 315.84 254.291 317.644 254.281 321.253C254.281 334.807 254.355 348.347 254.223 361.901C254.193 365.216 255.279 366.478 258.653 366.39C265.488 366.199 272.324 366.39 279.16 366.316C281.932 366.287 283.927 367.241 285.761 369.456C295.076 380.736 304.567 391.885 313.984 403.077C315.759 405.189 317.402 407.434 315.95 410.338C314.6 413.037 312.033 413.287 309.364 413.287C272.735 413.272 236.106 413.287 199.478 413.287L199.463 413.257ZM89.4301 132.594C89.4301 171.54 89.4301 210.472 89.4301 249.418C89.4301 254.01 89.6648 254.274 94.1242 254.274C164.198 254.274 234.287 254.274 304.361 254.274C308.909 254.274 309.158 254.025 309.158 249.521C309.158 190.933 309.158 132.344 309.158 73.7415C309.158 69.2381 308.924 69.018 304.347 69.0034C289.942 68.9887 275.537 69.0034 261.132 69.0034C253.386 69.0034 251.318 66.9937 251.303 59.3071C251.274 45.0194 251.303 30.7464 251.303 16.4587C251.303 11.2218 251.215 11.1485 245.964 11.1485C195.546 11.1485 145.114 11.1485 94.6963 11.1485C89.4887 11.1485 89.4301 11.2218 89.4301 16.5321C89.4301 55.2291 89.4301 93.9261 89.4301 132.623V132.594ZM198.891 264.542C138.351 264.542 77.8121 264.542 17.2728 264.542C16.0553 264.542 14.8231 264.601 13.6056 264.542C11.2732 264.454 10.3197 265.584 10.3344 267.872C10.393 273.608 10.1143 279.358 10.4371 285.079C11.1118 297.152 19.0918 304.853 31.1791 305.44C32.514 305.498 33.8636 305.469 35.2131 305.469C144.571 305.469 253.944 305.469 363.302 305.469C364.651 305.469 365.986 305.498 367.336 305.44C379.174 304.882 387.403 296.418 387.52 284.639C387.564 279.886 387.52 275.119 387.52 270.366C387.52 266.483 385.55 264.542 381.609 264.542C320.703 264.542 259.797 264.542 198.891 264.542ZM320.189 161.257C320.189 190.669 320.189 220.08 320.189 249.492C320.189 254.039 320.409 254.259 324.971 254.259C344.496 254.274 364.035 254.215 383.56 254.318C386.948 254.333 388.313 253.379 388.313 249.77C388.225 196.199 388.283 142.613 388.225 89.0413C388.225 76.7193 379.673 68.2846 367.439 68.2552C353.4 68.2112 339.362 68.2406 325.324 68.2552C320.292 68.2552 320.189 68.3726 320.189 73.3894C320.189 102.684 320.189 131.963 320.189 161.257ZM78.4136 161.257C78.4136 131.846 78.3989 102.449 78.4429 73.0374C78.4429 70.1036 78.1202 68.1672 74.3796 68.1966C59.4905 68.3433 44.6013 68.2552 29.7122 68.2846C28.5094 68.2846 27.2772 68.4606 26.089 68.7247C16.29 70.8957 10.3637 79.1984 10.3637 90.9483C10.3344 143.654 10.3637 196.375 10.3637 249.081C10.3637 254.157 10.4664 254.259 15.4392 254.259C34.7144 254.259 54.0042 254.259 73.2794 254.259C78.2669 254.259 78.4136 254.113 78.4136 249.11C78.4136 219.831 78.4136 190.537 78.4136 161.257ZM299.066 402.71C298.464 401.537 298.259 400.833 297.819 400.305C291.746 393.146 285.761 385.914 279.468 378.961C278.265 377.641 275.903 376.805 274.04 376.746C266.603 376.497 259.151 376.658 251.714 376.643C245.216 376.629 243.954 375.382 243.939 368.986C243.925 352.879 243.939 336.773 243.939 320.666C243.939 316.06 243.719 315.825 239.26 315.825C213.149 315.825 187.023 315.825 160.912 315.825C156.336 315.825 156.145 316.016 156.13 320.563C156.116 336.919 156.13 353.261 156.116 369.617C156.116 375.132 154.634 376.599 149.177 376.629C141.241 376.673 133.305 376.511 125.384 376.746C123.521 376.805 121.145 377.612 119.956 378.917C113.81 385.68 107.957 392.691 102.031 399.659C101.385 400.422 100.989 401.405 100.227 402.696H299.081L299.066 402.71ZM300.459 57.8842C287.712 45.1368 275.111 32.536 262.54 19.9646C262.745 19.7006 262.481 19.8913 262.481 20.0673C262.423 31.7879 262.335 43.4938 262.481 55.2144C262.481 56.1092 264.198 57.7522 265.122 57.7669C276.945 57.9429 288.768 57.8842 300.459 57.8842Z" fill="#6DBEFF"/>
<path d="M200.754 99.7943C173.044 99.7943 145.319 99.8236 117.61 99.7356C116.099 99.7356 113.414 99.0315 113.282 98.298C112.813 95.7456 113.165 93.0318 113.4 90.4061C113.429 90.054 114.573 89.6286 115.248 89.5406C116.451 89.3792 117.683 89.4379 118.9 89.4379C173.719 89.4379 228.537 89.4379 283.355 89.4379C289.106 89.4379 291.277 92.5037 289.208 97.9753C288.915 98.7528 287.712 99.4422 286.803 99.6916C285.659 99.9996 284.382 99.8089 283.165 99.8089C255.69 99.8089 228.229 99.8089 200.754 99.8089V99.7943Z" fill="#6DBEFF"/>
<path d="M215.966 132.697C201.575 132.697 187.17 132.785 172.78 132.667C161.939 132.579 151.099 132.154 140.244 132.066C137.163 132.036 136.034 130.79 136.268 127.885C136.342 126.917 136.312 125.934 136.283 124.966C136.21 122.663 137.31 121.636 139.613 121.68C143.632 121.739 147.666 121.68 151.686 121.68C170.345 121.68 189.018 121.607 207.678 121.724C225.97 121.841 244.248 122.252 262.54 122.326C266.545 122.326 266.765 124.409 266.75 127.43C266.735 130.496 266.706 132.858 262.437 132.814C246.947 132.638 231.456 132.741 215.951 132.741V132.697H215.966Z" fill="#6DBEFF"/>
<path d="M211.594 164.925C196.104 164.925 180.613 164.998 165.123 164.895C156.483 164.837 147.828 164.411 139.188 164.279C136.474 164.235 135.608 163.076 135.535 160.509C135.359 154.128 135.476 153.908 141.828 153.923C160.986 153.923 180.129 153.849 199.287 153.967C220.132 154.099 240.976 154.495 261.821 154.568C266.207 154.568 265.958 157.077 266.031 160.04C266.119 163.15 265.635 165.086 261.733 165.057C245.025 164.895 228.317 164.983 211.594 164.983V164.939V164.925Z" fill="#6DBEFF"/>
<path d="M175.479 68.2992C156.189 68.2992 136.899 68.3285 117.609 68.2405C116.098 68.2405 113.414 67.5364 113.282 66.8029C112.813 64.2505 112.989 61.4927 113.502 58.9403C113.619 58.3682 116.069 57.9868 117.448 57.9868C129.653 57.9135 141.857 57.9428 154.077 57.9428C180.569 57.9428 207.061 57.9135 233.554 58.0015C235.226 58.0015 238.145 58.5149 238.336 59.307C238.937 61.8008 238.805 64.6026 238.277 67.155C238.145 67.8004 235.549 68.2698 234.082 68.2698C214.543 68.3432 195.018 68.3139 175.479 68.3139V68.2992Z" fill="#6DBEFF"/>
</svg>
